<svg xmlns="http://www.w3.org/2000/svg" xmlns:xlink="http://www.w3.org/1999/xlink" id="svg" width="400" height="400" viewBox="0, 0, 400,400"><g id="svgg"><path id="path0" d="M170.962 90.258 C 169.749 91.491,168.406 92.763,167.977 93.083 C 167.548 93.404,167.319 93.667,167.467 93.667 C 167.747 93.667,166.810 94.553,164.120 96.833 C 163.255 97.567,160.474 100.229,157.940 102.750 C 155.406 105.271,153.174 107.333,152.980 107.333 C 152.786 107.333,152.720 107.483,152.833 107.667 C 152.947 107.850,152.896 108.000,152.722 108.000 C 152.547 108.000,151.922 108.450,151.333 109.000 C 150.745 109.550,150.104 110.000,149.909 110.000 C 149.715 110.000,149.646 110.091,149.758 110.202 C 149.869 110.313,149.594 110.770,149.146 111.217 C 148.699 111.664,148.333 112.163,148.333 112.326 C 148.333 112.489,148.022 112.721,147.642 112.841 C 147.261 112.962,147.029 113.140,147.127 113.238 C 147.357 113.469,144.722 116.000,144.251 116.000 C 144.052 116.000,143.978 116.089,144.087 116.198 C 144.196 116.307,142.833 117.861,141.059 119.652 C 139.285 121.443,137.383 123.468,136.833 124.153 C 135.395 125.944,133.461 128.103,131.167 130.475 C 128.373 133.365,126.210 135.932,125.926 136.694 C 125.794 137.050,125.091 137.941,124.364 138.676 C 123.636 139.410,122.947 140.308,122.832 140.672 C 122.716 141.036,122.499 141.333,122.350 141.333 C 122.050 141.333,118.977 144.936,117.667 146.823 C 117.208 147.484,116.346 148.573,115.750 149.244 C 115.154 149.915,114.667 150.722,114.667 151.037 C 114.667 151.353,114.554 151.661,114.417 151.722 C 114.279 151.783,113.608 152.583,112.924 153.500 C 112.241 154.417,111.529 155.348,111.341 155.569 C 111.153 155.791,111.000 156.095,111.000 156.246 C 111.000 156.396,110.700 156.736,110.333 157.000 C 109.967 157.264,109.667 157.752,109.667 158.084 C 109.667 158.416,109.455 158.769,109.197 158.868 C 108.939 158.967,108.546 159.487,108.323 160.024 C 108.101 160.561,107.787 161.000,107.626 161.000 C 107.465 161.000,107.333 161.225,107.333 161.500 C 107.333 161.775,107.200 162.000,107.037 162.000 C 106.874 162.000,106.420 162.681,106.029 163.514 C 105.637 164.346,105.096 165.112,104.825 165.216 C 104.555 165.320,104.333 165.689,104.333 166.036 C 104.333 166.383,104.200 166.667,104.037 166.667 C 103.874 166.667,103.541 167.342,103.297 168.167 C 103.054 168.992,102.737 169.667,102.594 169.667 C 102.451 169.667,102.333 169.892,102.333 170.167 C 102.333 170.442,102.183 170.667,102.000 170.667 C 101.817 170.667,101.667 170.967,101.667 171.333 C 101.667 171.700,101.517 172.000,101.333 172.000 C 101.150 172.000,101.000 172.225,101.000 172.500 C 101.000 172.775,100.850 173.000,100.667 173.000 C 100.483 173.000,100.363 173.112,100.399 173.250 C 100.520 173.705,99.961 175.000,99.644 175.000 C 99.473 175.000,99.333 175.231,99.333 175.514 C 99.333 175.797,99.033 176.350,98.667 176.743 C 98.300 177.137,98.000 177.731,98.000 178.063 C 98.000 178.395,97.863 178.667,97.696 178.667 C 97.529 178.667,97.291 179.267,97.167 180.000 C 97.043 180.733,96.842 181.335,96.721 181.336 C 96.406 181.340,95.667 183.021,95.667 183.733 C 95.667 184.063,95.553 184.333,95.415 184.333 C 95.068 184.333,94.420 185.911,94.150 187.417 C 94.027 188.104,93.792 188.667,93.630 188.667 C 93.467 188.667,93.333 189.117,93.333 189.667 C 93.333 190.217,93.210 190.667,93.060 190.667 C 91.774 190.667,91.748 207.472,93.031 208.817 C 93.197 208.991,93.333 209.386,93.333 209.695 C 93.333 210.004,93.557 210.687,93.831 211.212 C 94.105 211.737,94.330 212.504,94.331 212.917 C 94.332 213.329,94.483 213.667,94.667 213.667 C 94.850 213.667,95.000 214.117,95.000 214.667 C 95.000 215.217,95.150 215.667,95.333 215.667 C 95.517 215.667,95.667 215.892,95.667 216.167 C 95.667 216.442,95.785 216.667,95.929 216.667 C 96.074 216.667,96.486 217.642,96.846 218.833 C 97.206 220.025,97.612 221.000,97.750 221.000 C 97.888 221.000,98.000 221.267,98.000 221.593 C 98.000 221.919,98.300 222.402,98.667 222.667 C 99.033 222.931,99.333 223.414,99.333 223.740 C 99.333 224.066,99.471 224.333,99.640 224.333 C 99.809 224.333,100.053 224.821,100.182 225.417 C 100.311 226.012,100.511 226.575,100.625 226.667 C 100.972 226.944,101.990 228.728,102.909 230.667 C 103.387 231.675,103.903 232.550,104.056 232.611 C 104.208 232.672,104.333 232.942,104.333 233.210 C 104.333 233.478,104.682 234.046,105.108 234.472 C 105.535 234.898,106.078 235.716,106.315 236.290 C 106.553 236.864,106.879 237.333,107.040 237.333 C 107.202 237.333,107.333 237.558,107.333 237.833 C 107.333 238.108,107.459 238.333,107.613 238.333 C 107.767 238.333,108.179 238.932,108.530 239.663 C 108.880 240.394,109.279 240.994,109.417 240.996 C 109.554 240.998,109.667 241.148,109.667 241.330 C 109.667 241.636,109.870 241.917,111.407 243.734 C 111.722 244.107,112.070 244.695,112.179 245.040 C 112.289 245.384,112.593 245.667,112.856 245.667 C 113.118 245.667,113.333 245.863,113.333 246.104 C 113.333 246.344,113.633 246.863,114.000 247.257 C 114.367 247.650,114.667 248.181,114.667 248.437 C 114.667 248.692,115.117 249.372,115.667 249.948 C 116.217 250.523,116.667 251.081,116.667 251.187 C 116.667 251.294,116.854 251.577,117.083 251.816 C 117.313 252.056,117.725 252.593,118.000 253.009 C 118.549 253.841,119.825 255.331,121.750 257.385 C 122.438 258.119,123.000 258.839,123.000 258.985 C 123.000 259.131,123.675 259.954,124.500 260.815 C 125.325 261.676,126.000 262.558,126.000 262.774 C 126.000 262.990,126.563 263.790,127.250 264.552 C 129.938 267.529,130.877 268.521,131.509 269.051 C 131.871 269.354,132.617 270.159,133.167 270.840 C 133.717 271.521,134.954 272.913,135.917 273.932 C 136.879 274.952,137.667 275.891,137.667 276.021 C 137.667 276.551,159.782 298.674,163.636 302.000 C 164.380 302.642,166.203 304.329,167.687 305.750 C 169.172 307.171,170.549 308.333,170.749 308.333 C 170.948 308.333,171.030 308.414,170.931 308.513 C 170.629 308.816,176.106 314.000,176.728 314.000 C 176.899 314.000,176.947 314.150,176.833 314.333 C 176.720 314.517,176.839 314.667,177.097 314.667 C 177.679 314.667,183.000 319.714,183.000 320.266 C 183.000 320.486,183.193 320.667,183.429 320.667 C 183.664 320.667,185.052 321.789,186.512 323.160 C 187.972 324.531,189.285 325.656,189.431 325.660 C 189.791 325.669,190.223 326.045,193.841 329.500 C 198.171 333.634,198.591 334.000,199.008 334.000 C 199.208 334.000,199.280 334.150,199.167 334.333 C 199.053 334.517,199.126 334.667,199.328 334.667 C 199.530 334.667,199.876 334.819,200.097 335.006 C 200.959 335.733,201.986 336.528,202.886 337.167 C 204.417 338.253,206.011 339.878,205.775 340.114 C 205.654 340.235,205.779 340.333,206.051 340.333 C 206.324 340.333,207.252 341.008,208.113 341.833 C 208.974 342.658,209.757 343.333,209.853 343.333 C 210.074 343.333,210.731 343.876,212.174 345.250 C 212.799 345.846,213.429 346.336,213.572 346.339 C 213.716 346.342,214.311 346.754,214.895 347.255 C 215.479 347.757,216.445 348.542,217.042 349.000 C 217.639 349.458,218.467 350.171,218.882 350.583 C 219.297 350.996,219.793 351.333,219.985 351.333 C 220.177 351.333,220.334 351.446,220.336 351.583 C 220.337 351.721,220.871 352.196,221.522 352.640 C 222.174 353.084,223.252 353.946,223.918 354.557 C 224.585 355.167,225.244 355.667,225.383 355.667 C 225.522 355.667,226.011 356.042,226.470 356.500 C 226.928 356.958,227.374 357.333,227.461 357.333 C 227.548 357.333,228.179 357.862,228.864 358.507 C 229.549 359.153,230.458 359.769,230.885 359.876 C 231.313 359.983,231.589 360.189,231.500 360.333 C 231.411 360.478,231.674 360.683,232.086 360.790 C 232.497 360.897,233.313 361.438,233.899 361.992 C 234.484 362.547,235.122 363.000,235.315 363.000 C 235.509 363.000,235.667 363.118,235.667 363.261 C 235.667 363.405,236.154 363.806,236.750 364.151 C 237.346 364.496,238.247 365.204,238.753 365.723 C 239.259 366.242,239.756 366.667,239.858 366.667 C 240.122 366.667,242.477 368.449,242.611 368.750 C 242.672 368.887,242.935 369.000,243.194 369.000 C 243.454 369.000,243.667 369.150,243.667 369.333 C 243.667 369.517,243.869 369.667,244.116 369.667 C 244.363 369.667,244.911 369.967,245.333 370.333 C 245.756 370.700,246.304 371.000,246.551 371.000 C 246.798 371.000,247.000 371.150,247.000 371.333 C 247.000 371.517,247.225 371.667,247.500 371.667 C 247.775 371.667,248.000 371.800,248.000 371.964 C 248.000 372.127,248.375 372.355,248.833 372.470 C 249.292 372.585,249.667 372.827,249.667 373.006 C 249.667 373.186,249.859 373.333,250.093 373.333 C 250.328 373.333,250.736 373.633,251.000 374.000 C 251.264 374.367,251.672 374.667,251.907 374.667 C 252.141 374.667,252.333 374.800,252.333 374.964 C 252.333 375.127,252.708 375.355,253.167 375.470 C 253.625 375.585,254.000 375.827,254.000 376.006 C 254.000 376.186,254.225 376.333,254.500 376.333 C 254.775 376.333,255.000 376.483,255.000 376.667 C 255.000 376.850,255.225 377.000,255.500 377.000 C 255.775 377.000,256.000 377.150,256.000 377.333 C 256.000 377.517,256.225 377.667,256.500 377.667 C 256.775 377.667,257.001 377.779,257.003 377.917 C 257.005 378.054,257.680 378.463,258.503 378.825 C 259.326 379.187,260.000 379.599,260.000 379.741 C 260.000 379.884,260.225 380.000,260.500 380.000 C 260.775 380.000,261.000 380.150,261.000 380.333 C 261.000 380.517,261.225 380.667,261.500 380.667 C 261.775 380.667,262.000 380.790,262.000 380.941 C 262.000 381.297,264.741 382.667,265.453 382.667 C 265.754 382.667,266.000 382.817,266.000 383.000 C 266.000 383.183,266.225 383.333,266.500 383.333 C 266.775 383.333,267.000 383.483,267.000 383.667 C 267.000 383.850,267.149 384.000,267.331 384.000 C 267.900 384.000,270.333 385.144,270.333 385.412 C 270.333 385.552,270.633 385.667,271.000 385.667 C 271.367 385.667,271.667 385.817,271.667 386.000 C 271.667 386.183,271.892 386.333,272.167 386.333 C 272.442 386.333,272.667 386.471,272.667 386.640 C 272.667 386.809,273.115 387.045,273.663 387.166 C 274.211 387.286,274.745 387.523,274.849 387.692 C 274.954 387.862,275.330 388.000,275.686 388.000 C 276.042 388.000,276.333 388.150,276.333 388.333 C 276.333 388.517,276.633 388.667,277.000 388.667 C 277.367 388.667,277.667 388.817,277.667 389.000 C 277.667 389.183,277.967 389.333,278.333 389.333 C 278.700 389.333,279.000 389.464,279.000 389.624 C 279.000 389.784,279.607 390.012,280.348 390.130 C 281.089 390.249,281.989 390.493,282.348 390.673 C 282.707 390.853,283.298 391.150,283.662 391.333 C 284.026 391.517,284.551 391.667,284.829 391.667 C 285.106 391.667,285.333 391.817,285.333 392.000 C 285.333 392.183,285.783 392.333,286.333 392.333 C 286.883 392.333,287.333 392.456,287.333 392.607 C 287.333 393.082,293.070 393.667,297.732 393.667 C 302.161 393.667,306.000 393.181,306.000 392.621 C 306.000 392.463,306.359 392.333,306.798 392.333 C 308.044 392.333,308.503 390.538,307.350 390.172 C 306.993 390.059,306.619 389.711,306.520 389.400 C 306.421 389.088,305.550 387.988,304.586 386.956 C 303.622 385.923,302.507 384.648,302.108 384.122 C 301.068 382.753,300.014 381.667,299.726 381.667 C 299.589 381.667,299.192 381.179,298.844 380.583 C 298.495 379.988,297.802 379.125,297.303 378.667 C 296.805 378.208,296.297 377.496,296.176 377.083 C 296.054 376.671,295.806 376.333,295.625 376.333 C 295.443 376.333,295.380 376.194,295.485 376.024 C 295.590 375.854,295.412 375.629,295.088 375.525 C 294.765 375.420,294.125 374.779,293.667 374.099 C 292.845 372.882,292.554 372.542,289.750 369.524 C 288.971 368.685,288.332 367.887,288.330 367.750 C 288.329 367.612,287.835 366.975,287.234 366.333 C 286.632 365.692,285.775 364.567,285.330 363.833 C 284.400 362.300,284.196 362.029,282.833 360.510 C 282.283 359.896,281.352 358.858,280.764 358.201 C 280.175 357.545,279.520 356.682,279.307 356.284 C 279.094 355.886,278.563 355.230,278.126 354.825 C 277.690 354.421,277.333 353.881,277.333 353.625 C 277.333 353.370,277.038 352.976,276.677 352.751 C 276.316 352.525,275.769 351.852,275.461 351.254 C 275.153 350.656,274.623 349.971,274.284 349.731 C 273.944 349.492,273.667 349.091,273.667 348.840 C 273.667 348.590,273.217 347.935,272.667 347.385 C 272.117 346.835,271.667 346.291,271.667 346.177 C 271.667 346.063,271.292 345.595,270.833 345.136 C 270.375 344.678,270.000 344.182,270.000 344.034 C 270.000 343.886,269.549 343.293,268.997 342.716 C 268.446 342.139,268.099 341.667,268.227 341.667 C 268.354 341.667,268.168 341.374,267.813 341.016 C 266.761 339.957,266.333 339.382,266.333 339.028 C 266.333 338.844,265.749 338.097,265.034 337.368 C 264.320 336.639,263.820 335.958,263.923 335.855 C 264.026 335.751,263.960 335.667,263.775 335.667 C 263.590 335.667,263.031 334.954,262.533 334.083 C 261.497 332.273,260.232 330.397,259.555 329.667 C 259.301 329.392,258.898 328.795,258.660 328.340 C 258.422 327.886,258.064 327.347,257.864 327.143 C 257.664 326.939,257.125 326.270,256.667 325.657 C 256.208 325.044,255.571 324.311,255.250 324.030 C 254.929 323.749,254.666 323.364,254.666 323.176 C 254.665 322.987,254.215 322.308,253.664 321.667 C 253.114 321.025,252.579 320.237,252.476 319.917 C 252.373 319.596,252.149 319.333,251.978 319.333 C 251.807 319.333,251.667 319.033,251.667 318.667 C 251.667 318.300,251.520 318.000,251.340 318.000 C 251.160 318.000,250.919 317.625,250.804 317.167 C 250.689 316.708,250.495 316.333,250.373 316.333 C 250.251 316.333,249.869 315.808,249.523 315.167 C 249.178 314.525,248.769 314.000,248.614 314.000 C 248.460 314.000,248.333 313.808,248.333 313.574 C 248.333 313.339,248.041 312.937,247.685 312.680 C 247.328 312.422,247.097 312.112,247.173 311.990 C 247.249 311.868,247.015 311.451,246.655 311.064 C 246.295 310.678,246.000 310.206,246.000 310.017 C 246.000 309.827,245.700 309.485,245.333 309.256 C 244.967 309.027,244.667 308.576,244.667 308.253 C 244.667 307.931,244.527 307.667,244.356 307.667 C 244.185 307.667,243.938 307.329,243.808 306.917 C 243.678 306.504,243.293 305.924,242.952 305.628 C 242.612 305.331,242.333 304.912,242.333 304.697 C 242.333 304.287,241.999 303.813,240.750 302.453 C 240.338 302.004,240.000 301.496,240.000 301.324 C 240.000 300.731,237.777 297.001,237.555 297.223 C 237.433 297.345,237.333 297.119,237.333 296.722 C 237.333 296.325,237.215 296.000,237.070 296.000 C 236.926 296.000,236.376 295.175,235.848 294.167 C 235.321 293.158,234.764 292.333,234.611 292.333 C 234.458 292.333,234.333 292.108,234.333 291.833 C 234.333 291.558,234.183 291.333,234.000 291.333 C 233.817 291.333,233.667 291.108,233.667 290.833 C 233.667 290.558,233.554 290.332,233.417 290.331 C 233.104 290.329,232.000 288.419,232.000 287.880 C 232.000 287.660,231.700 287.264,231.333 287.000 C 230.967 286.736,230.667 286.328,230.667 286.093 C 230.667 285.859,230.534 285.667,230.372 285.667 C 230.086 285.667,229.558 284.420,229.631 283.917 C 229.650 283.779,229.517 283.667,229.333 283.667 C 229.150 283.667,229.000 283.442,229.000 283.167 C 229.000 282.892,228.850 282.667,228.667 282.667 C 228.483 282.667,228.333 282.421,228.333 282.120 C 228.333 281.820,227.883 280.842,227.333 279.949 C 226.783 279.055,226.333 278.176,226.333 277.995 C 226.333 277.814,226.183 277.667,226.000 277.667 C 225.817 277.667,225.667 277.442,225.667 277.167 C 225.667 276.892,225.517 276.667,225.333 276.667 C 225.150 276.667,225.000 276.442,225.000 276.167 C 225.000 275.892,224.841 275.667,224.647 275.667 C 224.453 275.667,224.380 275.527,224.486 275.356 C 224.591 275.186,224.525 274.952,224.339 274.837 C 224.152 274.722,224.000 274.336,224.000 273.980 C 224.000 273.624,223.850 273.333,223.667 273.333 C 223.483 273.333,223.333 273.033,223.333 272.667 C 223.333 272.300,223.183 272.000,223.000 272.000 C 222.817 272.000,222.667 271.775,222.667 271.500 C 222.667 271.225,222.532 271.000,222.366 271.000 C 222.201 271.000,221.789 270.326,221.450 269.501 C 221.111 268.677,220.721 268.002,220.583 268.001 C 220.446 268.001,220.333 267.775,220.333 267.500 C 220.333 267.225,220.183 267.000,220.000 267.000 C 219.817 267.000,219.667 266.775,219.667 266.500 C 219.667 266.225,219.517 266.000,219.333 266.000 C 219.150 266.000,219.000 265.700,219.000 265.333 C 219.000 264.967,218.867 264.667,218.704 264.667 C 218.541 264.667,218.309 264.142,218.189 263.500 C 218.068 262.858,217.843 262.333,217.689 262.333 C 217.534 262.333,217.309 261.808,217.189 261.167 C 217.068 260.525,216.827 260.000,216.652 260.000 C 216.477 260.000,216.333 259.700,216.333 259.333 C 216.333 258.967,216.183 258.667,216.000 258.667 C 215.817 258.667,215.667 258.377,215.667 258.024 C 215.667 257.670,215.442 257.156,215.167 256.881 C 214.892 256.606,214.667 256.145,214.667 255.857 C 214.667 255.569,214.517 255.333,214.333 255.333 C 214.150 255.333,214.000 255.042,214.000 254.686 C 214.000 254.330,213.850 253.947,213.667 253.833 C 213.483 253.720,213.333 253.336,213.333 252.980 C 213.333 252.624,213.190 252.333,213.015 252.333 C 212.840 252.333,212.598 251.808,212.478 251.167 C 212.358 250.525,212.126 250.000,211.963 250.000 C 211.800 250.000,211.667 249.700,211.667 249.333 C 211.667 248.967,211.517 248.667,211.333 248.667 C 211.150 248.667,211.000 248.292,211.000 247.833 C 211.000 247.375,210.850 247.000,210.667 247.000 C 210.483 247.000,210.333 246.700,210.333 246.333 C 210.333 245.967,210.186 245.667,210.006 245.667 C 209.827 245.667,209.586 245.254,209.472 244.750 C 209.170 243.414,208.542 242.000,208.252 242.000 C 208.113 242.000,208.000 241.779,208.000 241.510 C 208.000 241.240,207.625 240.200,207.167 239.198 C 206.708 238.196,206.333 237.066,206.333 236.688 C 206.333 236.310,206.200 236.000,206.037 236.000 C 205.874 236.000,205.635 235.438,205.507 234.751 C 205.378 234.064,205.172 233.426,205.050 233.334 C 204.727 233.091,203.663 229.938,203.665 229.230 C 203.666 228.899,203.517 228.720,203.333 228.833 C 203.144 228.950,203.000 228.670,203.000 228.186 C 203.000 227.717,202.850 227.333,202.667 227.333 C 202.483 227.333,202.333 227.150,202.333 226.925 C 202.333 226.394,200.774 222.201,199.963 220.552 C 199.617 219.847,199.333 218.985,199.333 218.635 C 199.333 218.286,199.183 218.000,199.000 218.000 C 198.817 218.000,198.667 217.634,198.667 217.186 C 198.667 216.739,198.525 216.285,198.353 216.179 C 198.180 216.072,197.938 215.314,197.815 214.496 C 197.692 213.677,197.459 213.089,197.296 213.190 C 197.133 213.290,197.000 212.926,197.000 212.381 C 197.000 211.835,196.887 211.339,196.750 211.278 C 196.336 211.094,195.269 207.996,194.702 205.333 C 194.409 203.958,194.057 202.783,193.918 202.722 C 193.780 202.661,193.664 202.361,193.662 202.056 C 193.656 201.475,192.984 199.409,192.613 198.833 C 192.495 198.650,192.292 197.787,192.161 196.917 C 192.031 196.046,191.791 195.333,191.629 195.333 C 191.466 195.333,191.333 194.892,191.333 194.353 C 191.333 193.814,191.183 193.280,191.000 193.167 C 190.817 193.053,190.667 192.520,190.667 191.980 C 190.667 191.441,190.531 191.000,190.365 191.000 C 190.198 191.000,189.959 190.250,189.833 189.334 C 189.707 188.417,189.468 187.583,189.302 187.481 C 189.136 187.378,189.000 186.778,189.000 186.147 C 189.000 185.516,188.850 185.000,188.667 185.000 C 188.483 185.000,188.333 184.550,188.333 184.000 C 188.333 183.450,188.199 183.000,188.035 183.000 C 187.871 183.000,187.661 182.438,187.569 181.750 C 187.477 181.063,187.225 179.900,187.008 179.167 C 186.792 178.433,186.625 177.496,186.637 177.083 C 186.649 176.671,186.511 176.333,186.330 176.333 C 186.148 176.333,186.000 175.817,186.000 175.186 C 186.000 174.555,185.850 173.947,185.667 173.833 C 185.483 173.720,185.333 173.111,185.333 172.480 C 185.333 171.849,185.199 171.333,185.035 171.333 C 184.871 171.333,184.657 170.771,184.559 170.083 C 184.200 167.563,183.629 164.820,183.359 164.320 C 183.206 164.038,182.973 162.574,182.839 161.068 C 182.706 159.562,182.463 158.247,182.298 158.145 C 182.134 158.044,182.000 157.378,182.000 156.667 C 182.000 155.955,181.860 155.286,181.689 155.181 C 181.518 155.075,181.273 153.788,181.145 152.320 C 181.017 150.853,180.782 149.571,180.623 149.473 C 180.464 149.375,180.333 148.562,180.333 147.667 C 180.333 146.772,180.183 145.947,180.000 145.833 C 179.817 145.720,179.667 144.970,179.667 144.167 C 179.667 143.363,179.517 142.613,179.333 142.500 C 179.150 142.387,179.000 141.713,179.000 141.002 C 179.000 140.291,178.855 139.329,178.678 138.862 C 178.500 138.396,178.254 136.441,178.129 134.517 C 178.005 132.594,177.775 131.100,177.618 131.197 C 177.462 131.293,177.333 130.239,177.333 128.853 C 177.333 127.467,177.195 126.333,177.026 126.333 C 176.857 126.333,176.638 125.246,176.540 123.917 C 176.441 122.587,176.206 120.225,176.019 118.667 C 175.393 113.457,175.047 108.538,175.000 104.167 C 174.970 101.416,174.849 100.077,174.667 100.500 C 174.493 100.904,174.371 98.571,174.357 94.583 C 174.329 86.774,174.355 86.807,170.962 90.258 M194.077 131.667 C 194.077 132.308,194.146 132.571,194.230 132.250 C 194.314 131.929,194.314 131.404,194.230 131.083 C 194.146 130.762,194.077 131.025,194.077 131.667 M204.513 169.750 C 204.792 171.053,204.941 171.333,205.353 171.333 C 205.807 171.333,205.739 169.539,205.267 169.067 C 204.567 168.367,204.273 168.633,204.513 169.750 " stroke="none" fill="#e42c2c" fill-rule="evenodd"></path><path id="path1" d="M287.333 6.667 C 287.333 6.850,286.883 7.000,286.333 7.000 C 285.783 7.000,285.333 7.150,285.333 7.333 C 285.333 7.517,285.042 7.667,284.686 7.667 C 284.330 7.667,283.955 7.804,283.851 7.971 C 283.748 8.138,283.065 8.376,282.333 8.500 C 281.602 8.624,280.919 8.862,280.815 9.029 C 280.712 9.196,280.261 9.333,279.814 9.333 C 279.366 9.333,279.000 9.483,279.000 9.667 C 279.000 9.850,278.700 10.000,278.333 10.000 C 277.967 10.000,277.667 10.150,277.667 10.333 C 277.667 10.517,277.465 10.667,277.218 10.667 C 276.971 10.667,276.334 10.873,275.801 11.125 C 275.269 11.377,274.346 11.789,273.750 12.040 C 273.154 12.291,272.667 12.609,272.667 12.748 C 272.667 12.887,272.442 13.000,272.167 13.000 C 271.892 13.000,271.667 13.150,271.667 13.333 C 271.667 13.517,271.367 13.667,271.000 13.667 C 270.633 13.667,270.333 13.817,270.333 14.000 C 270.333 14.183,270.169 14.333,269.967 14.333 C 269.535 14.333,267.241 15.371,267.000 15.676 C 266.908 15.792,266.346 16.099,265.750 16.358 C 265.154 16.617,264.667 16.919,264.667 17.029 C 264.667 17.138,264.067 17.408,263.333 17.627 C 262.600 17.847,262.000 18.171,262.000 18.347 C 262.000 18.523,261.775 18.667,261.500 18.667 C 261.225 18.667,261.000 18.783,261.000 18.925 C 261.000 19.068,260.326 19.480,259.503 19.842 C 258.680 20.204,258.005 20.612,258.003 20.750 C 258.001 20.887,257.775 21.000,257.500 21.000 C 257.225 21.000,257.000 21.150,257.000 21.333 C 257.000 21.517,256.775 21.667,256.500 21.667 C 256.225 21.667,255.998 21.779,255.996 21.917 C 255.994 22.054,255.394 22.453,254.663 22.804 C 253.932 23.154,253.333 23.566,253.333 23.720 C 253.333 23.874,253.108 24.000,252.833 24.000 C 252.558 24.000,252.333 24.150,252.333 24.333 C 252.333 24.517,252.163 24.667,251.956 24.667 C 251.748 24.667,251.336 24.945,251.039 25.286 C 250.743 25.626,250.162 26.011,249.750 26.141 C 249.338 26.272,249.000 26.518,249.000 26.689 C 249.000 26.860,248.787 27.000,248.528 27.000 C 248.268 27.000,248.006 27.118,247.944 27.262 C 247.756 27.706,245.758 29.000,245.261 29.000 C 245.003 29.000,244.470 29.300,244.077 29.667 C 243.683 30.033,243.205 30.333,243.014 30.333 C 242.823 30.333,242.667 30.451,242.667 30.595 C 242.667 30.739,242.179 31.144,241.584 31.496 C 240.988 31.848,240.185 32.443,239.800 32.818 C 238.638 33.950,237.210 35.000,236.835 35.000 C 236.640 35.000,236.264 35.300,236.000 35.667 C 235.736 36.033,235.396 36.333,235.245 36.333 C 235.094 36.333,234.566 36.708,234.072 37.167 C 233.578 37.625,232.984 38.000,232.753 38.000 C 232.522 38.000,232.333 38.150,232.333 38.333 C 232.333 38.517,232.141 38.667,231.907 38.667 C 231.672 38.667,231.265 38.966,231.001 39.331 C 230.738 39.697,230.037 40.156,229.444 40.352 C 228.851 40.548,228.273 40.999,228.160 41.354 C 228.047 41.709,227.808 42.000,227.629 42.000 C 227.450 42.000,226.928 42.375,226.470 42.833 C 226.011 43.292,225.488 43.667,225.307 43.667 C 225.126 43.667,224.453 44.192,223.811 44.833 C 223.169 45.475,222.522 46.000,222.372 46.000 C 222.222 46.000,221.628 46.450,221.052 47.000 C 220.477 47.550,219.931 48.000,219.839 48.000 C 219.632 48.000,218.328 49.105,216.617 50.729 C 215.905 51.405,215.024 52.053,214.661 52.168 C 214.297 52.284,214.000 52.518,214.000 52.689 C 214.000 52.860,213.845 53.000,213.656 53.000 C 213.466 53.000,212.799 53.487,212.174 54.083 C 210.706 55.481,210.074 56.000,209.838 56.000 C 209.615 56.000,207.940 57.519,205.704 59.750 C 204.831 60.621,204.008 61.333,203.876 61.333 C 203.744 61.333,203.261 61.708,202.803 62.167 C 202.345 62.625,201.864 63.002,201.735 63.005 C 201.606 63.008,201.025 63.421,200.444 63.922 C 199.863 64.423,198.833 65.283,198.156 65.833 C 197.478 66.383,195.684 68.033,194.168 69.500 C 192.652 70.967,191.015 72.453,190.531 72.803 C 186.885 75.437,183.839 78.667,185.000 78.667 C 185.192 78.667,185.333 79.716,185.333 81.147 C 185.333 82.511,185.483 83.720,185.667 83.833 C 185.850 83.947,186.000 84.744,186.000 85.605 C 186.000 86.466,186.151 87.695,186.336 88.336 C 186.520 88.976,186.768 90.968,186.886 92.762 C 187.005 94.556,187.229 96.102,187.384 96.198 C 187.540 96.294,187.667 97.105,187.667 98.000 C 187.667 98.895,187.817 99.720,188.000 99.833 C 188.183 99.947,188.333 100.657,188.333 101.413 C 188.333 102.168,188.474 103.247,188.646 103.810 C 189.135 105.409,190.005 110.701,190.002 112.064 C 190.001 112.740,190.150 113.387,190.333 113.500 C 190.517 113.613,190.667 114.288,190.667 115.000 C 190.667 115.712,190.817 116.387,191.000 116.500 C 191.183 116.613,191.333 117.372,191.333 118.186 C 191.333 119.001,191.468 119.667,191.633 119.667 C 191.798 119.667,192.018 120.304,192.123 121.083 C 192.772 125.924,193.153 128.000,193.393 128.000 C 193.544 128.000,193.667 128.600,193.667 129.333 C 193.667 130.067,193.828 130.667,194.026 130.667 C 194.223 130.667,194.352 131.154,194.313 131.750 C 194.273 132.346,194.326 133.058,194.429 133.333 C 194.629 133.865,194.812 134.808,195.414 138.417 C 195.621 139.654,195.912 140.667,196.062 140.667 C 196.211 140.667,196.333 141.119,196.333 141.671 C 196.333 142.224,196.469 142.936,196.634 143.255 C 196.800 143.573,197.115 144.508,197.336 145.333 C 197.556 146.158,197.857 147.148,198.004 147.532 C 198.152 147.917,198.379 149.081,198.509 150.120 C 198.638 151.159,198.877 152.091,199.039 152.191 C 199.201 152.291,199.333 152.739,199.333 153.186 C 199.333 153.634,199.483 154.000,199.667 154.000 C 199.850 154.000,200.000 154.450,200.000 155.000 C 200.000 155.550,200.134 156.000,200.297 156.000 C 200.460 156.000,200.677 156.487,200.779 157.083 C 201.263 159.915,201.804 162.000,202.056 162.000 C 202.208 162.000,202.333 162.377,202.333 162.838 C 202.333 163.299,202.483 163.974,202.667 164.338 C 202.850 164.702,203.150 165.298,203.333 165.662 C 203.517 166.026,203.667 166.635,203.667 167.014 C 203.667 167.719,205.592 169.752,206.013 169.492 C 206.141 169.413,206.342 168.747,206.459 168.012 C 206.577 167.277,206.972 166.144,207.337 165.494 C 207.701 164.845,208.000 164.093,208.000 163.823 C 208.000 163.554,208.150 163.333,208.333 163.333 C 208.517 163.333,208.667 163.050,208.667 162.705 C 208.667 162.359,208.891 161.647,209.165 161.121 C 209.438 160.596,209.663 159.913,209.665 159.603 C 209.666 159.293,209.817 158.947,210.000 158.833 C 210.183 158.720,210.333 158.336,210.333 157.980 C 210.333 157.624,210.483 157.333,210.667 157.333 C 210.850 157.333,211.000 157.033,211.000 156.667 C 211.000 156.300,211.150 156.000,211.333 156.000 C 211.517 156.000,211.667 155.625,211.667 155.167 C 211.667 154.708,211.800 154.333,211.964 154.333 C 212.127 154.333,212.359 153.942,212.479 153.463 C 212.778 152.275,214.074 149.525,214.401 149.389 C 214.547 149.328,214.667 148.990,214.667 148.639 C 214.667 148.287,214.805 148.000,214.974 148.000 C 215.142 148.000,215.381 147.540,215.505 146.978 C 215.628 146.415,215.939 145.553,216.196 145.061 C 216.453 144.569,216.663 143.904,216.665 143.583 C 216.666 143.262,216.817 143.000,217.000 143.000 C 217.183 143.000,217.333 142.700,217.333 142.333 C 217.333 141.967,217.483 141.667,217.667 141.667 C 217.850 141.667,218.000 141.518,218.000 141.336 C 218.000 140.766,219.144 138.333,219.412 138.333 C 219.552 138.333,219.667 138.033,219.667 137.667 C 219.667 137.300,219.817 137.000,220.000 137.000 C 220.183 137.000,220.333 136.700,220.333 136.333 C 220.333 135.967,220.446 135.666,220.583 135.665 C 220.721 135.665,221.102 135.012,221.429 134.215 C 221.757 133.418,222.290 132.481,222.613 132.133 C 223.242 131.455,223.806 130.326,223.720 129.917 C 223.690 129.779,223.817 129.667,224.000 129.667 C 224.183 129.667,224.333 129.367,224.333 129.000 C 224.333 128.633,224.483 128.333,224.667 128.333 C 224.850 128.333,225.000 128.033,225.000 127.667 C 225.000 127.300,225.150 127.000,225.333 127.000 C 225.517 127.000,225.667 126.775,225.667 126.500 C 225.667 126.225,225.779 125.999,225.917 125.997 C 226.054 125.995,226.463 125.320,226.825 124.497 C 227.187 123.674,227.582 123.000,227.704 123.000 C 227.826 123.000,228.024 122.475,228.145 121.833 C 228.265 121.192,228.471 120.667,228.603 120.667 C 228.844 120.667,229.453 119.657,229.858 118.583 C 229.979 118.263,230.210 118.000,230.372 118.000 C 230.534 118.000,230.667 117.700,230.667 117.333 C 230.667 116.967,230.817 116.667,231.000 116.667 C 231.183 116.667,231.333 116.510,231.333 116.319 C 231.333 116.128,231.488 115.791,231.678 115.569 C 232.239 114.914,234.333 111.278,234.333 110.960 C 234.333 110.798,234.467 110.667,234.631 110.667 C 234.794 110.667,235.013 110.326,235.118 109.910 C 235.222 109.494,235.613 108.825,235.987 108.424 C 236.361 108.023,236.667 107.538,236.667 107.347 C 236.667 107.156,236.788 107.000,236.936 107.000 C 237.292 107.000,239.333 103.184,239.333 102.518 C 239.333 102.233,239.483 102.000,239.667 102.000 C 239.850 102.000,240.000 101.775,240.000 101.500 C 240.000 101.225,240.127 101.000,240.283 101.000 C 240.438 101.000,240.836 100.400,241.167 99.667 C 241.497 98.933,241.895 98.333,242.051 98.333 C 242.206 98.333,242.333 98.163,242.333 97.956 C 242.333 97.748,242.598 97.336,242.921 97.039 C 243.245 96.743,243.804 95.938,244.164 95.250 C 244.524 94.563,244.934 94.000,245.076 94.000 C 245.217 94.000,245.333 93.700,245.333 93.333 C 245.333 92.967,245.480 92.667,245.660 92.667 C 245.839 92.667,246.285 92.082,246.649 91.368 C 247.013 90.654,247.513 89.866,247.759 89.618 C 248.005 89.370,248.642 88.390,249.174 87.441 C 249.706 86.491,250.260 85.788,250.404 85.877 C 250.549 85.966,250.667 85.741,250.667 85.377 C 250.667 85.012,250.892 84.489,251.167 84.214 C 251.442 83.939,251.667 83.554,251.667 83.357 C 251.667 83.161,251.783 83.000,251.924 83.000 C 252.066 83.000,252.464 82.475,252.810 81.833 C 253.156 81.192,253.565 80.667,253.719 80.667 C 253.874 80.667,254.000 80.367,254.000 80.000 C 254.000 79.633,254.118 79.333,254.261 79.333 C 254.405 79.333,254.810 78.846,255.161 78.250 C 255.513 77.654,256.070 76.876,256.400 76.520 C 256.730 76.165,257.000 75.759,257.000 75.619 C 257.000 75.479,257.337 74.996,257.750 74.547 C 258.920 73.273,259.333 72.718,259.333 72.421 C 259.333 72.270,259.633 71.931,260.000 71.667 C 260.367 71.402,260.667 70.988,260.667 70.746 C 260.667 70.504,260.967 69.983,261.333 69.590 C 261.700 69.196,262.000 68.679,262.000 68.441 C 262.000 68.043,262.556 67.237,263.567 66.169 C 263.788 65.936,263.875 65.653,263.762 65.540 C 263.648 65.426,263.712 65.333,263.904 65.333 C 264.096 65.333,264.439 64.883,264.667 64.333 C 264.894 63.783,265.200 63.333,265.345 63.333 C 265.491 63.333,266.183 62.546,266.883 61.583 C 267.584 60.621,268.421 59.543,268.745 59.187 C 269.069 58.832,269.333 58.340,269.333 58.093 C 269.333 57.847,269.553 57.562,269.821 57.459 C 270.089 57.356,270.398 56.986,270.509 56.638 C 270.620 56.289,270.888 55.816,271.105 55.585 C 271.906 54.736,273.333 52.702,273.333 52.410 C 273.333 52.244,273.896 51.492,274.583 50.738 C 276.338 48.815,276.667 48.399,276.667 48.097 C 276.668 47.952,277.118 47.308,277.667 46.667 C 278.216 46.025,278.665 45.394,278.666 45.265 C 278.666 45.136,279.042 44.655,279.500 44.197 C 279.958 43.739,280.333 43.275,280.333 43.168 C 280.333 42.934,280.722 42.456,282.541 40.458 C 283.297 39.627,284.122 38.547,284.374 38.057 C 284.627 37.567,285.096 36.876,285.417 36.520 C 285.737 36.165,286.000 35.758,286.000 35.615 C 286.000 35.473,286.450 34.896,287.000 34.333 C 287.550 33.771,288.000 33.187,288.000 33.037 C 288.000 32.887,288.337 32.389,288.750 31.930 C 289.162 31.471,289.725 30.766,290.000 30.363 C 290.275 29.960,291.287 28.776,292.250 27.732 C 293.212 26.688,294.000 25.741,294.000 25.629 C 294.000 25.516,294.448 24.916,294.995 24.295 C 295.542 23.674,295.992 22.995,295.995 22.785 C 295.998 22.575,296.412 21.961,296.917 21.420 C 297.421 20.879,298.133 20.022,298.500 19.516 C 298.867 19.009,299.692 18.041,300.333 17.364 C 300.975 16.687,301.950 15.570,302.500 14.881 C 303.050 14.193,304.137 12.937,304.917 12.089 C 305.696 11.241,306.333 10.430,306.333 10.287 C 306.333 10.144,306.745 9.645,307.248 9.179 C 308.279 8.223,308.036 7.257,306.716 7.060 C 306.322 7.002,306.000 6.814,306.000 6.643 C 306.000 6.460,302.202 6.333,296.667 6.333 C 290.667 6.333,287.333 6.452,287.333 6.667 " stroke="none" fill="#841c1c" fill-rule="evenodd"></path></g></svg>